<svg xmlns="http://www.w3.org/2000/svg" viewBox="0 0 720 720"><defs><style>.a{fill:#4d648d;}</style></defs><title>fa-veekas</title><path class="a" d="M436.94,154.26A76.94,76.94,0,1,1,360,77.32,76.94,76.94,0,0,1,436.94,154.26ZM559.15,38.9c-.7,0-1.4,0-2.1.07L492.69,153.42A76.94,76.94,0,1,0,559.15,38.9Zm-398.31,0a76.94,76.94,0,1,0,66.28,114.83L163.3,39C162.48,38.95,161.67,38.9,160.85,38.9ZM358.93,385.07A76.94,76.94,0,1,0,435.87,462,76.94,76.94,0,0,0,358.93,385.07ZM193,94.54,92.5,152.26l201.81,351.6,100.55-57.71Zm335.6-3L325.33,442.29l100.3,58.14L628.94,149.7Z"/></svg>