<svg xmlns="http://www.w3.org/2000/svg" viewBox="0 0 564.5 509.97"><title>vmp-logo</title><path d="M438.37,244.48A78.46,78.46,0,1,1,359.91,166,78.46,78.46,0,0,1,438.37,244.48ZM563,126.83c-.72,0-1.43,0-2.14.07L495.23,243.62A78.47,78.47,0,1,0,563,126.83Zm-406.2,0a78.46,78.46,0,1,0,67.6,117.11l-65.1-117C158.48,126.88,157.65,126.84,156.81,126.83Zm202,353a78.46,78.46,0,1,0,78.46,78.46A78.46,78.46,0,0,0,358.82,479.87ZM189.65,183.58,87.1,242.44,292.91,601l102.54-58.86Zm342.25-3L324.55,538.22l102.29,59.3L634.18,239.83Z" transform="translate(-77.66 -126.83)"/></svg>